{"title":"Madagascar 3 Europes Most Wanted 2012 DVDRiP XviD AC3-ILLUMINATI","uid":7691858,"size":1641949962,"categoryP":"video","categoryS":"movies","magnet":"?xt=urn:btih:d6947be9e485d51c41437a21e13bd9af44f33c22&amp;dn=Madagascar+3+Europes+Most+Wanted+2012+DVDRiP+XviD+AC3-ILLUMINATI&amp;tr=udp%3A%2F%2Ftracker.openbittorrent.com%3A80&amp;tr=udp%3A%2F%2Fopen.demonii.com%3A1337&amp;tr=udp%3A%2F%2Ftracker.coppersurfer.tk%3A6969&amp;tr=udp%3A%2F%2Fexodus.desync.com%3A6969","seeders":2,"leechers":0,"uploader":"DownHD","files":-1,"time":1349224253,"description":"PublicHD - High-Definition Bittorrent Community\n\n----------------------------------------------------------\n\nMadagascar 3 Europe's Most Wanted 2012 DVDRiP XviD AC3-ILLUMINATI\n &lt;a href=&quot;\nhttp://www.imdb.com/title/tt1277953/&quot; rel=&quot;nofollow&quot; target=&quot;_NEW&quot;&gt;\nhttp://www.imdb.com/title/tt1277953/&lt;/a&gt;\n\nVideo\n\nID : 0\nFormat : MPEG-4 Visual\nFormat profile : Advanced Simple@L5\nFormat settings, BVOP : 2\nFormat settings, QPel : No\nFormat settings, GMC : No warppoints\nFormat settings, Matrix : Default (H.263)\nMuxing mode : Packed bitstream\nCodec ID : XVID\nCodec ID/Hint : XviD\nDuration : 1h 33mn\nBit rate : 1 950 Kbps\nWidth : 720 pixels\nHeight : 384 pixels\nDisplay aspect ratio : 1.85:1\nFrame rate : 23.976 fps\nColor space : YUV\nChroma subsampling : 4:2]0\nBit depth : 8 bits\nScan type : Progressive\nCompression mode : Lossy\nBits/(Pixel*Frame) : 0.294\nStream size : 1.27 GiB (83%)\nWriting library : XviD 64\n\n\nAudio\n\nID : 1\nFormat : AC-3\nFormat/Info : Audio Coding 3\nMode extension : CM (complete main)\nFormat settings, Endianness : Big\nCodec ID : 2000\nDuration : 1h 33mn\nBit rate mode : Constant\nBit rate : 384 Kbps\nChannel(s) : 6 channels\nChannel positions : Front: L C R, Side: L R, Sampling rate : 48.0 KHz\nBit depth : 16 bits\nCompression mode : Lossy\nStream size : 257 MiB (16%)\nAlignment : Aligned on interleaves\nInterleave, duration : 42 ms (1.00 video frame)\n\n\nSource: OWN DVDR (RENTAL)\n\n\nSCREENS:\n\n &lt;a href=&quot;\nhttp://imgbox.com/adj8d1fH&quot; rel=&quot;nofollow&quot; target=&quot;_NEW&quot;&gt;\nhttp://imgbox.com/adj8d1fH&lt;/a&gt;\n &lt;a href=&quot;\nhttp://imgbox.com/adnSfc80&quot; rel=&quot;nofollow&quot; target=&quot;_NEW&quot;&gt;\nhttp://imgbox.com/adnSfc80&lt;/a&gt;\n &lt;a href=&quot;\nhttp://imgbox.com/acv2xGKp&quot; rel=&quot;nofollow&quot; target=&quot;_NEW&quot;&gt;\nhttp://imgbox.com/acv2xGKp&lt;/a&gt;\n\n\n","torrent":{"xt":"urn:btih:d6947be9e485d51c41437a21e13bd9af44f33c22","amp;dn":"Madagascar+3+Europes+Most+Wanted+2012+DVDRiP+XviD+AC3-ILLUMINATI","amp;tr":["udp%3A%2F%2Ftracker.openbittorrent.com%3A80","udp%3A%2F%2Fopen.demonii.com%3A1337","udp%3A%2F%2Ftracker.coppersurfer.tk%3A6969","udp%3A%2F%2Fexodus.desync.com%3A6969"],"infoHash":"d6947be9e485d51c41437a21e13bd9af44f33c22","infoHashBuffer":{"type":"Buffer","data":[214,148,123,233,228,133,213,28,65,67,122,33,225,59,217,175,68,243,60,34]},"announce":[],"urlList":[]}}